<?xml version="1.0" encoding="utf-8"?>
<!-- Generator: Adobe Illustrator 22.0.0, SVG Export Plug-In . SVG Version: 6.00 Build 0)  -->
<svg version="1.1" id="Layer_1" xmlns="http://www.w3.org/2000/svg" xmlns:xlink="http://www.w3.org/1999/xlink" x="0px" y="0px"
	 viewBox="0 0 448.4 129.5" style="enable-background:new 0 0 448.4 129.5;" xml:space="preserve">
<style type="text/css">
	.st0{fill:#CB9831;}
</style>
<g>
	<path class="st0" d="M66.1,104.6c-0.7,4.8-7,6.2-11.1,10.2c-3.2,3.4-9,2.9-11.3,5.2c-1.3,0.4-2.8,0.6-4.5,0.6
		c-11.5,0-18.3-5.2-22.1-12.7c-3.4-6.4-5.9-11.2-5.9-23.8c0-19.2,6.2-26.7,8.1-36.1c1.8-1.5,3.4-4.1,4.3-6
		c5.2-4.1,14.1-8.4,19.9-8.4c6.6,0,12.3,2.8,16.7,6.9c0.8,3.4,5.2,4.6,5.2,8.5c0,2-1.3,4.6-3.9,4.6c-0.6,0-1.1-0.1-1.7-0.7
		c-4.8-4.2-5.2-11.3-14.1-11.3c-1.3,0-2.5,0.3-4.1,0.6c-18.9,4.6-22.8,26.9-22.8,42.6c0,9.1,2.8,21.4,9.5,26c2,1,5.6,1.5,9.2,1.5
		c9.1,0,20.7-5.5,23.7-10.6c0.6-0.6,1.1-0.8,1.8-0.8C64.7,100.6,65.9,102.7,66.1,104.6z"/>
	<path class="st0" d="M129.1,123.2c-1,0-1.8-0.4-2.8-1.3c-5.9-10.6-4.2-24.2-9-34.6c-0.7-0.1-0.8-1.4-2-1.4c-0.8,0-1.3,0.6-2,0.6
		c-2.1,0.3-4.2,0.3-6.3,0.3H100c-3.1,0-6,0-6,2.1c0,0.4,0.1,1,0.1,1.4c0,0.6-0.1,1.1-1.4,1.8c-0.7,10.4-2.9,18.6-4.5,28.1
		c-1.1,1.5-2.7,3.6-4.2,3.6c-0.8,0-1.7-0.7-2.5-2.4l-1.5-1.8c0.4-2.1,1.3-2.8,1.7-4.6c0-0.4-0.3-1.7-0.4-1.7c0.1-1,0.7-1.8,0.7-2.4
		c0-0.7-0.1-1.7-0.1-2.7c1.5-8.4,2.5-11.8,4.2-20.7c-0.4-0.1-0.8-0.1-1.3-0.1c-0.8,0-1.7,0.1-2.5,0.1c-1.4,0-3.2-0.4-3.2-3.2
		c0-3.5,1.8-5.9,4.6-5.9c0.7,0,1.5,0.1,2.2,0.1c1,0,1.8-0.1,2.7-0.8c0.3-6.2,4.1-13.3,4.1-19.6c0-1.3-0.1-2.5-0.6-3.8
		c2.4-2.1,1.1-6.6,2-9c2.4-7.3,2-16.4,5.6-22.8c-0.6-0.8-0.7-1.5-0.7-2.4c0-2.5,2.4-5,3.8-7.3c2.5,1.1,5.7,2,6.9,4.8
		c-0.6,1.5-0.8,3.2-0.8,4.8c0,4.2,2,8.3,4.6,11.8c-0.4,0.8-0.4,1.7-0.4,2.5c0,2.9,1.4,5.9,1.4,9.1v0.6c5.2,8.7,3.2,19.3,7.6,28.3
		c0,0.4-0.1,0.7-0.1,1c0,4.1,2.7,7.4,2.7,11.3v1.3c3.1,6.6,2.8,14.7,5.9,21.8c0.4,2.8,2.5,5.9,2.5,9c0,1-0.3,2.1-0.8,3.1
		C131,122.9,130.1,123.2,129.1,123.2z M111.4,57.8c-1-2.7-2.5-5-2.5-7.7c0-0.3,0.1-0.7,0.1-1c-2.9-3.1-2.5-11.2-4.6-14.7
		c-4.1,12-6.3,31.8-7.3,44.7c4.8-0.6,11.5,0.1,17.1-0.7C113.8,71.7,111.7,64.5,111.4,57.8z"/>
	<path class="st0" d="M206.8,92.7c2.2,4.1,3.5,10.5,1.3,13.9l-5.6,1.1c-2.1-0.8-2.2-4.2-1.3-6c-0.6-7.4-1.4-13.9-1.8-21.1
		c-3.1-3.4-1.7-8.5-3.9-12c-0.3-6.7-1.1-13.7-3.4-19.6c-1.8,0.7-3.2,2.7-2.9,4.5c-5.2,5-6.4,11.8-11.6,16.7
		c0.1,5.9-8.8,6.7-6.2,12.9c0.8,2.2-1.7,3.4-2.9,4.2c-2.8-1-3.8-4.8-6.7-6.7c-4.8-4.5-10.2-9.9-13.3-15.8l-3.6-3.5
		c-4.3,4.6,1,11.2-2.5,16.2c0.1,6.6-0.6,22.4-3.2,28.4c-1.5,0.7-3.8,1-5.3,1.1c-3.2-2.1-2.2-4.1-1.3-7.1c2.8-11.3,3.1-31.8,4.3-43.1
		c0.6-4.3-4.1-7.8-0.6-12.2c1.1-2,3.5-5.2,6-2.9c0.3,6,6.3,9.8,8.7,15.1c3.6,5.6,9.5,11.5,14.4,17.1c7.3-7.1,12-16.7,17.6-25.6
		c2.4-3.6,1.7-9,6.6-10.8c4.3-1.7,3.8,5,8,3.5c5.6,6.3,2.2,17.1,4.9,23.8C203.4,74,208.6,82.4,206.8,92.7z"/>
	<path class="st0" d="M263.3,110.7c-1.8,1-3.9,1.4-6.2,1.3c-3.4,1.4-7.1,2.4-10.9,3.4c-5,1.4-10.2,2.8-14.3,5.6
		c-2.9,0.8-5-1.5-6.2-3.8c-1.3-9.8,0.3-24.2-1.3-34.2c-1.7-1.1-1.7-3.1-2.4-4.8c4.3-4.1-1-8.7,1.4-13.3c0.1-3.9-1.1-9.2-0.7-13.7
		c0.3-3.2,1.4-5.9,4.6-7.3c4.3,1.4,9,0.4,13.4,0c6.9-0.7,14-2.4,20.4-1.3l0.6,1.1c1.4,2.9-2.1,4.2-3.4,5.5c-4.3,1.8-9.9,2-15.3,2.4
		c-4.1,0.3-8.1,0.7-11.3,2.1c-2.9,5.3,1,14-0.1,19.3c0.1,2.4,1.5,2.8,4.9,1.7c5.7-1.3,13.4,0.6,18.1-3.6c2.4-0.3,4.5,0.3,5.9,2.5
		c0.4,5.9-6.3,4.9-9.8,6.7c-5.6,0.8-12,3.8-18.5,2.7c-0.3,4.9-0.3,16.8,0.7,22.1c-0.4,1.1,0.7,3.1,1.3,4.9c4.3-0.8,8.7-2.2,13-3.5
		c5.5-1.7,11.1-3.2,16.4-4.1c2.4,0.1,2.9,1.8,4.2,3.5C267,107.9,265.3,109.6,263.3,110.7z"/>
	<path class="st0" d="M318.2,116.7c-6-9.7-15.3-16.7-19.5-27.2c-2.8-2.4-4.3-11.8-7.3-13.9c0,2.2,0.7,8.4,0.7,11.8
		c0.3,6-3.5,15,0.3,20.3c-2,3.1,0.3,7.8,0,11.2c-0.1,2-1.1,3.5-4.3,4.1c-1.8-0.1-3.2-2.1-4.8-2.9c0.3-11.9,1.1-37.9,1.1-46.3
		c0-3.4-3.2-1.7,0.1-8.8c-0.6-3.2-1.3-10.5-0.6-13.9c-1.5-3.5,0-8-1.3-11.6c-2.8,0.7-6,3.6-8.7,0.7c-0.1-2.8-0.3-6.3,3.1-7.1
		c2.5,0,4.3-1.8,6.3-3.9c-1.8-3.2,0.1-6,3.6-6.6c1.4-0.8,3.8-1,5.5,0c0.4,1.1-1.1,5.6-0.4,6.6c3.2-0.7,6.6-1.7,9.5-1.7
		c6-0.1,11.1,1.7,15.7,3.8l2,1.8c-0.3,3.2,1.8,5.2,2.1,9.1c0.1,3.4-1.3,8.7-3.6,10.8l-6,8.4c-7.1,5.2-7.3,3.5-14.4,8.8
		c3.1,6.7,5.5,13.2,8.8,18.6c3.8,6.3,8.1,11.8,14.7,18.5c0.8,1,5.5,4.6,5.5,5.7C327.9,118.3,322.8,119.3,318.2,116.7z M313.7,39.5
		l-6-5.2c-4.1-1.4-12,1.3-16.9,2.7c-0.1,1.3-1,7.4,0.7,8.8c-0.8,5.6-0.8,12.3-0.7,19.2c0.6,1,2.1-2.4,2.9-1.5
		c8-2.9,16.4-6.4,19.6-14.6c0.1-3.1,2.8-2.7,1.1-5.9L313.7,39.5z"/>
	<path class="st0" d="M389.1,123.2c-1,0-1.8-0.4-2.8-1.3c-5.9-10.6-4.2-24.2-9-34.6c-0.7-0.1-0.8-1.4-2-1.4c-0.8,0-1.3,0.6-2,0.6
		c-2.1,0.3-4.2,0.3-6.3,0.3h-7.1c-3.1,0-6,0-6,2.1c0,0.4,0.1,1,0.1,1.4c0,0.6-0.1,1.1-1.4,1.8c-0.7,10.4-2.9,18.6-4.5,28.1
		c-1.1,1.5-2.7,3.6-4.2,3.6c-0.8,0-1.7-0.7-2.5-2.4l-1.5-1.8c0.4-2.1,1.3-2.8,1.7-4.6c0-0.4-0.3-1.7-0.4-1.7c0.1-1,0.7-1.8,0.7-2.4
		c0-0.7-0.1-1.7-0.1-2.7c1.5-8.4,2.5-11.8,4.2-20.7c-0.4-0.1-0.8-0.1-1.3-0.1c-0.8,0-1.7,0.1-2.5,0.1c-1.4,0-3.2-0.4-3.2-3.2
		c0-3.5,1.8-5.9,4.6-5.9c0.7,0,1.5,0.1,2.2,0.1c1,0,1.8-0.1,2.7-0.8c0.3-6.2,4.1-13.3,4.1-19.6c0-1.3-0.1-2.5-0.6-3.8
		c2.4-2.1,1.1-6.6,2-9c2.4-7.3,2-16.4,5.6-22.8c-0.6-0.8-0.7-1.5-0.7-2.4c0-2.5,2.4-5,3.8-7.3c2.5,1.1,5.7,2,6.9,4.8
		c-0.6,1.5-0.8,3.2-0.8,4.8c0,4.2,2,8.3,4.6,11.8c-0.4,0.8-0.4,1.7-0.4,2.5c0,2.9,1.4,5.9,1.4,9.1v0.6c5.2,8.7,3.2,19.3,7.6,28.3
		c0,0.4-0.1,0.7-0.1,1c0,4.1,2.7,7.4,2.7,11.3v1.3c3.1,6.6,2.8,14.7,5.9,21.8c0.4,2.8,2.5,5.9,2.5,9c0,1-0.3,2.1-0.8,3.1
		C391,122.9,390,123.2,389.1,123.2z M371.4,57.8c-1-2.7-2.5-5-2.5-7.7c0-0.3,0.1-0.7,0.1-1c-2.9-3.1-2.5-11.2-4.6-14.7
		c-4.1,12-6.3,31.8-7.3,44.7c4.8-0.6,11.5,0.1,17.1-0.7C373.8,71.7,371.7,64.5,371.4,57.8z"/>
	<path class="st0" d="M433.4,44.2c-2.1-0.4-4.2,0-5.9-1.8c0-0.4,0.1-0.7,0.1-1c0-6-3.5-11.9-10.5-13.7c-1-0.1-2.1-0.1-2.9-0.1
		c-11.5,0-22.7,12.3-22.7,22.1c0,11.3,7.7,12.6,14.4,12.6h6.3c5,0,10.4,0.6,13.7,4.8c2,4.8,8.3,8.1,8.3,13.2c0,1.3,0.4,3.2-0.4,4.6
		c0.1,0.7,0.1,1.4,0.1,2.1c0,9.5-10.8,23.1-19.6,23.1c-3.5,0-10.4-1.3-13.4-2.5c-4.3-2-6.2-3.5-9.4-6.7c-2.4-2.5-2.2-6-3.9-10.1
		c1.7-2.8,3.8-5.5,6.2-5.5c1.3,0,2.2,0.6,3.5,2.2c0.6,3.6-1.8,7.1,0.6,9.8c4.2,4.5,10.8,4.9,14.7,4.9c8.7,0,13.9-11.1,13.9-17.8
		c0-4.5-4.1-9-6-12.2c-1.7-2.1-4.2-3.6-7.4-3.6c-0.6,0-1.1,0-1.8,0.1c-0.3-0.1-0.7-0.1-1-0.1c-1.5,0-2.8,0.8-3.9,0.8
		c-0.4,0-1.1-0.1-1.7-0.6c-0.6,0.6-1.1,0.8-1.7,0.8c-1.4,0-2.4-1.5-3.6-1.5c-0.6,0-1.3,0.4-1.8,1.4c-8.3-2.5-14.1-10.5-14.1-19.6
		c0-5.5,4.9-14.1,8.3-18.6c4.9-6.4,11.8-11.1,22.1-11.1c9.7,0,19,8,22.5,16.2C435.4,39,435.4,42,433.4,44.2z"/>
</g>
</svg>
