<?xml version="1.0" encoding="utf-8"?>
<!-- Generator: Adobe Illustrator 22.0.0, SVG Export Plug-In . SVG Version: 6.00 Build 0)  -->
<svg version="1.1" id="Layer_1" xmlns="http://www.w3.org/2000/svg" xmlns:xlink="http://www.w3.org/1999/xlink" x="0px" y="0px"
	 viewBox="0 0 523.4 129.5" style="enable-background:new 0 0 523.4 129.5;" xml:space="preserve">
<style type="text/css">
	.st0{fill:#CA9A2C;}
</style>
<g>
	<path class="st0" d="M68,99.8c-0.7,4.8-7,6.2-11.1,10.2c-3.2,3.4-9,2.9-11.3,5.2c-1.3,0.4-2.8,0.6-4.5,0.6
		c-11.5,0-18.3-5.2-22.1-12.7c-3.4-6.4-5.9-11.2-5.9-23.8c0-19.2,6.2-26.7,8.1-36.1c1.8-1.5,3.4-4.1,4.3-6
		c5.2-4.1,14.1-8.4,19.9-8.4c6.6,0,12.3,2.8,16.7,6.9c0.8,3.4,5.2,4.6,5.2,8.5c0,2-1.3,4.6-3.9,4.6c-0.6,0-1.1-0.1-1.7-0.7
		c-4.8-4.2-5.2-11.3-14.1-11.3c-1.3,0-2.5,0.3-4.1,0.6c-18.9,4.6-22.8,26.9-22.8,42.6c0,9.1,2.8,21.4,9.5,26c2,1,5.6,1.5,9.2,1.5
		c9.1,0,20.7-5.5,23.7-10.6c0.6-0.6,1.1-0.8,1.8-0.8C66.6,95.9,67.8,98,68,99.8z"/>
	<path class="st0" d="M161.6,81.6c1.4,9.9-6.4,14.1-9.5,22c-4.3,2.4-8.5,7.4-13.6,8.8c-5.3,1.4-9.9,4.1-15.5,4.9
		c-4.6-0.7-11.8,1.4-16.1-1.8c-11.1-0.4-20.6-11.6-23.7-21.4c-5.5-6.9-4.1-16.7-6-25.1c1.7-14.6,6.9-28.8,20.2-37.4
		c10.6-2.2,19.2-9.7,31.1-9c10.8-0.3,22,4.1,26.7,14.3c5.7,2.7,5.9,8.7,8.8,13.2C164.2,60.2,166.8,72.9,161.6,81.6z M150.3,41.7
		c-6-9.5-16-12.2-26.7-11.3c-11.8,1-21.7,8.3-30.8,15c-1,4.1-4.1,7.3-5.2,11.3c-3.1,9.8-2.4,22.8,1.4,32.1
		c2.2,5.2,5.5,10.1,10.4,14.3c7.1,9,20.2,5.2,30.2,5.2c10.9-3.8,21.4-14.7,25.6-25.5C158,69.3,160.9,52.4,150.3,41.7z"/>
	<path class="st0" d="M220.4,113.9c-5.7-4.9-8-12.6-12-18.9c-8.5-10.1-13.2-24.6-21.7-34.7c-2.7,7.3,3.6,16,2,22.8
		c0.1,10.8,4.6,20.2,3.1,31.1c-0.4,3.1,5,11.6-1,11.8c-1,0.7-3.9-0.3-4.8-1.5c-0.4-2.5,0-5.7-1.3-9.8c-2.5-3.6-1.7-8.7-2-14.3
		c-1.3-18.2-5.3-32.9-5.2-51.8c-1.3-2.2-2.7-5.2-1.3-7.6c-0.8-4.9-1.7-11.1,1.8-15.1c4.2,1,4.1,5.9,6.3,8.5
		c2.2,9.4,7,15.4,10.6,24.2c3.5,3.4,3.5,8.4,7.1,11.9c2.7,3.4,5.7,13.7,8.5,15c1.4,1.8,3.6,8.4,6.6,9.4c1.5-6-1.1-15-0.3-23.8
		c2-7.7-1-30.7,0.4-38.6c-1.7-3.6-2.1-9,2.9-11.8c1.7-0.1,3.8,0.4,3.9,5.5c0.8,8.8-0.1,15.3,1.1,27.9c-2.4,7.4-0.1,20.2-1.5,27.2
		c0.8,3.9,0.8,10.1,0,14.4c1.7,4.2,1.4,8.8,2.4,13.2C226.9,110.9,225.9,115.8,220.4,113.9z"/>
	<path class="st0" d="M311,28.4c1.4,1.5-0.6,4.8-1.8,5.5c-9.9,1.8-18.8-1.3-29-0.1c-1.3,0.8-2.1,1.8-2.7,2.9c-1.4,2.9-0.7,6-1.7,9.5
		l0.4,0.7c-1,7.8-0.4,17.4,0.1,26.5c0.4,5.7,0.8,14.1,1,18.9c0.1,2.5,1.4,5.2,1.7,7.8c0.3,2.1-0.3,4.1-2.2,5.7
		c0,1.5,0.3,3.9-1.8,4.1c-2.5-0.8-3.2-2.8-3.5-5.2c-0.3-2.5-0.1-5.5-1.5-7.6c1.1-5.5-1.7-14.6,0-20.4c-1-11.2-0.6-27.9-1-39.8
		c0-1.7-2.1-1.8-3.5-1.7c-2.2,2-5.6-1.1-8.5,1.3c-4.5-2.7-9.9-0.3-14.7-0.6c-2.2-0.1-4.2-1-5.9-3.1c0.7-2.2,1.8-4.6,4.1-5.5
		c11.3,0.3,24.2,0.6,34.7-1.1c6.3-2.1,22.5,1.5,34.2,0.7l1.8,1.3L311,28.4z"/>
	<path class="st0" d="M359.9,118.4c-1,0-1.8-0.4-2.8-1.3c-5.9-10.6-4.2-24.2-9-34.6c-0.7-0.1-0.8-1.4-2-1.4c-0.8,0-1.3,0.6-2,0.6
		c-2.1,0.3-4.2,0.3-6.3,0.3h-7.1c-3.1,0-6,0-6,2.1c0,0.4,0.1,1,0.1,1.4c0,0.6-0.1,1.1-1.4,1.8c-0.7,10.4-2.9,18.6-4.5,28.1
		c-1.1,1.5-2.7,3.6-4.2,3.6c-0.8,0-1.7-0.7-2.5-2.4l-1.5-1.8c0.4-2.1,1.3-2.8,1.7-4.6c0-0.4-0.3-1.7-0.4-1.7c0.1-1,0.7-1.8,0.7-2.4
		c0-0.7-0.1-1.7-0.1-2.7c1.5-8.4,2.5-11.8,4.2-20.7c-0.4-0.1-0.8-0.1-1.3-0.1c-0.8,0-1.7,0.1-2.5,0.1c-1.4,0-3.2-0.4-3.2-3.2
		c0-3.5,1.8-5.9,4.6-5.9c0.7,0,1.5,0.1,2.2,0.1c1,0,1.8-0.1,2.7-0.8c0.3-6.2,4.1-13.3,4.1-19.6c0-1.3-0.1-2.5-0.6-3.8
		c2.4-2.1,1.1-6.6,2-9c2.4-7.3,2-16.4,5.6-22.8c-0.6-0.8-0.7-1.5-0.7-2.4c0-2.5,2.4-5,3.8-7.3c2.5,1.1,5.7,2,6.9,4.8
		c-0.6,1.5-0.8,3.2-0.8,4.8c0,4.2,2,8.3,4.6,11.8c-0.4,0.8-0.4,1.7-0.4,2.5c0,2.9,1.4,5.9,1.4,9.1v0.6c5.2,8.7,3.2,19.3,7.6,28.3
		c0,0.4-0.1,0.7-0.1,1c0,4.1,2.7,7.4,2.7,11.3v1.3c3.1,6.6,2.8,14.7,5.9,21.8c0.4,2.8,2.5,5.9,2.5,9c0,1-0.3,2.1-0.8,3.1
		C361.8,118.1,360.9,118.4,359.9,118.4z M342.2,53.1c-1-2.7-2.5-5-2.5-7.7c0-0.3,0.1-0.7,0.1-1c-2.9-3.1-2.5-11.2-4.6-14.7
		c-4.1,12-6.3,31.8-7.3,44.7c4.8-0.6,11.5,0.1,17.1-0.7C344.6,66.9,342.5,59.8,342.2,53.1z"/>
	<path class="st0" d="M425.3,99.8c-0.7,4.8-7,6.2-11.1,10.2c-3.2,3.4-9,2.9-11.3,5.2c-1.3,0.4-2.8,0.6-4.5,0.6
		c-11.5,0-18.3-5.2-22.1-12.7c-3.4-6.4-5.9-11.2-5.9-23.8c0-19.2,6.2-26.7,8.1-36.1c1.8-1.5,3.4-4.1,4.3-6
		c5.2-4.1,14.1-8.4,19.9-8.4c6.6,0,12.3,2.8,16.7,6.9c0.8,3.4,5.2,4.6,5.2,8.5c0,2-1.3,4.6-3.9,4.6c-0.6,0-1.1-0.1-1.7-0.7
		c-4.8-4.2-5.2-11.3-14.1-11.3c-1.3,0-2.5,0.3-4.1,0.6c-18.9,4.6-22.8,26.9-22.8,42.6c0,9.1,2.8,21.4,9.5,26c2,1,5.6,1.5,9.2,1.5
		c9.1,0,20.7-5.5,23.7-10.6c0.6-0.6,1.1-0.8,1.8-0.8C423.9,95.9,425.1,98,425.3,99.8z"/>
	<path class="st0" d="M507.6,28.4c1.4,1.5-0.6,4.8-1.8,5.5c-9.9,1.8-18.8-1.3-29-0.1c-1.3,0.8-2.1,1.8-2.7,2.9
		c-1.4,2.9-0.7,6-1.7,9.5l0.4,0.7c-1,7.8-0.4,17.4,0.1,26.5c0.4,5.7,0.8,14.1,1,18.9c0.1,2.5,1.4,5.2,1.7,7.8
		c0.3,2.1-0.3,4.1-2.2,5.7c0,1.5,0.3,3.9-1.8,4.1c-2.5-0.8-3.2-2.8-3.5-5.2c-0.3-2.5-0.1-5.5-1.5-7.6c1.1-5.5-1.7-14.6,0-20.4
		c-1-11.2-0.6-27.9-1-39.8c0-1.7-2.1-1.8-3.5-1.7c-2.2,2-5.6-1.1-8.5,1.3c-4.5-2.7-9.9-0.3-14.7-0.6c-2.2-0.1-4.2-1-5.9-3.1
		c0.7-2.2,1.8-4.6,4.1-5.5c11.3,0.3,24.2,0.6,34.7-1.1c6.3-2.1,22.5,1.5,34.2,0.7l1.8,1.3L507.6,28.4z"/>
</g>
</svg>
