<?xml version="1.0" encoding="utf-8"?>
<!-- Generator: Adobe Illustrator 22.0.0, SVG Export Plug-In . SVG Version: 6.00 Build 0)  -->
<svg version="1.1" id="Layer_1" xmlns="http://www.w3.org/2000/svg" xmlns:xlink="http://www.w3.org/1999/xlink" x="0px" y="0px"
	 viewBox="0 0 523.4 129.5" style="enable-background:new 0 0 523.4 129.5;" xml:space="preserve">
<style type="text/css">
	.st0{fill:#CA9A2C;}
</style>
<g>
	<path class="st0" d="M61.8,39.5c-2.1-0.4-4.2,0-5.9-1.8c0-0.4,0.1-0.7,0.1-1c0-6-3.5-11.9-10.5-13.7c-1-0.1-2.1-0.1-2.9-0.1
		C31.2,22.8,20,35.1,20,44.9c0,11.3,7.7,12.6,14.4,12.6h6.3c5,0,10.4,0.6,13.7,4.8c2,4.8,8.3,8.1,8.3,13.2c0,1.3,0.4,3.2-0.4,4.6
		c0.1,0.7,0.1,1.4,0.1,2.1c0,9.5-10.8,23.1-19.6,23.1c-3.5,0-10.4-1.3-13.4-2.5c-4.3-2-6.2-3.5-9.4-6.7c-2.4-2.5-2.2-6-3.9-10.1
		c1.7-2.8,3.8-5.5,6.2-5.5c1.3,0,2.2,0.6,3.5,2.2c0.6,3.6-1.8,7.1,0.6,9.8C30.5,97,37,97.4,41,97.4c8.7,0,13.9-11.1,13.9-17.8
		c0-4.5-4.1-9-6-12.2c-1.7-2.1-4.2-3.6-7.4-3.6c-0.6,0-1.1,0-1.8,0.1c-0.3-0.1-0.7-0.1-1-0.1c-1.5,0-2.8,0.8-3.9,0.8
		c-0.4,0-1.1-0.1-1.7-0.6c-0.6,0.6-1.1,0.8-1.7,0.8c-1.4,0-2.4-1.5-3.6-1.5c-0.6,0-1.3,0.4-1.8,1.4c-8.3-2.5-14.1-10.5-14.1-19.6
		c0-5.5,4.9-14.1,8.3-18.6c4.9-6.4,11.8-11.1,22.1-11.1c9.7,0,19,8,22.5,16.2C63.8,34.3,63.8,37.2,61.8,39.5z"/>
	<path class="st0" d="M116.6,106c-1.8,1-3.9,1.4-6.2,1.3c-3.4,1.4-7.1,2.4-10.9,3.4c-5,1.4-10.2,2.8-14.3,5.6
		c-2.9,0.8-5-1.5-6.2-3.8c-1.3-9.8,0.3-24.2-1.3-34.2c-1.7-1.1-1.7-3.1-2.4-4.8c4.3-4.1-1-8.7,1.4-13.3c0.1-3.9-1.1-9.2-0.7-13.7
		c0.3-3.2,1.4-5.9,4.6-7.3c4.3,1.4,9,0.4,13.4,0c6.9-0.7,14-2.4,20.4-1.3l0.6,1.1c1.4,2.9-2.1,4.2-3.4,5.5c-4.3,1.8-9.9,2-15.3,2.4
		c-4.1,0.3-8.1,0.7-11.3,2.1c-2.9,5.3,1,14-0.1,19.3c0.1,2.4,1.5,2.8,4.9,1.7c5.7-1.3,13.4,0.6,18.1-3.6c2.4-0.3,4.5,0.3,5.9,2.5
		c0.4,5.9-6.3,4.9-9.8,6.7c-5.6,0.8-12,3.8-18.5,2.7c-0.3,4.9-0.3,16.8,0.7,22.1c-0.4,1.1,0.7,3.1,1.3,4.9c4.3-0.8,8.7-2.2,13-3.5
		c5.5-1.7,11.1-3.2,16.4-4.1c2.4,0.1,2.9,1.8,4.2,3.5C120.2,103.2,118.5,104.9,116.6,106z"/>
	<path class="st0" d="M171.4,112c-6-9.7-15.3-16.7-19.5-27.2c-2.8-2.4-4.3-11.8-7.3-13.9c0,2.2,0.7,8.4,0.7,11.8
		c0.3,6-3.5,15,0.3,20.3c-2,3.1,0.3,7.8,0,11.2c-0.1,2-1.1,3.5-4.3,4.1c-1.8-0.1-3.2-2.1-4.8-2.9c0.3-11.9,1.1-37.9,1.1-46.3
		c0-3.4-3.2-1.7,0.1-8.8c-0.6-3.2-1.3-10.5-0.6-13.9c-1.5-3.5,0-8-1.3-11.6c-2.8,0.7-6,3.6-8.7,0.7c-0.1-2.8-0.3-6.3,3.1-7.1
		c2.5,0,4.3-1.8,6.3-3.9c-1.8-3.2,0.1-6,3.6-6.6c1.4-0.8,3.8-1,5.5,0c0.4,1.1-1.1,5.6-0.4,6.6c3.2-0.7,6.6-1.7,9.5-1.7
		c6-0.1,11.1,1.7,15.7,3.8l2,1.8c-0.3,3.2,1.8,5.2,2.1,9.1c0.1,3.4-1.3,8.7-3.6,10.8l-6,8.4c-7.1,5.2-7.3,3.5-14.4,8.8
		c3.1,6.7,5.5,13.2,8.8,18.6c3.8,6.3,8.1,11.8,14.7,18.5c0.8,1,5.5,4.6,5.5,5.7C181.1,113.5,176.1,114.5,171.4,112z M167,34.7
		l-6-5.2c-4.1-1.4-12,1.3-16.9,2.7c-0.1,1.3-1,7.4,0.7,8.8c-0.8,5.6-0.8,12.3-0.7,19.2c0.6,1,2.1-2.4,2.9-1.5
		c8-2.9,16.4-6.4,19.6-14.6c0.1-3.1,2.8-2.7,1.1-5.9L167,34.7z"/>
	<path class="st0" d="M243.4,46.2c-4.6,8.4-8.3,17.1-9.7,26.7c-2.4,6.7-5,13-7.4,19.3c-2.5,6.6-5.3,12.9-7.1,19.7
		c-1.8,1.7-1.3,5.3-4.3,6c-5.7-1.1-7.6-8-8.5-13.6c0.8-2.4-1.4-4.2-0.7-6c-8-15.4-8.7-33.9-15.7-49.8c-1.7-2.7-2.5-5.5-3.1-8.4
		c-1.1-0.6-0.4-2-0.4-3.2c1.4-2,3.9-6,7.1-3.6c5.5,10.1,3.2,22,9.7,31.8c-0.1,0.7,0.6,1.8-0.6,2.4c3.6,7.7,4.8,16.5,8.5,24.5
		c3.1,1.5,1.5,6.2,4.8,6.7c9.4-18.1,13.9-37.9,19.7-57.4c5.5-5.5,0.6-18.6,11.9-18.3l2,2.5C249.4,33.2,242.7,38.2,243.4,46.2z"/>
	<path class="st0" d="M299.3,109.6c-4.6,0.1-11.2-2-14.3,1.8c-3.9,0.4-5.6-1.7-8-1.8c-2.8-0.1-5.9,0.4-8.8,0.6
		c-3.5,0.1-7,0.4-8.8-3.9c-0.6-1.4,1.3-1.8,1.8-2.8c2.1-0.7,4.6-1.1,7.1-1.3c3.2-0.3,6.6-0.1,9.4,0c3.4-2.1-0.1-3.4,2-5.5l-1.8-21.4
		l-2.2-26.7c-1.7-2.7-4.9-1.1-8.1-0.6c-2.1,0.4-4.2,0.7-6-0.4c-1.4-2-4.5-1.1-4.9-4.1c1.1-2.7,3.2-3.5,5.7-3.6
		c3.9-0.3,8.5,1,11.9-0.4c2.5-1.4,5.6-2.5,8.7-1.1c3.1-0.6,10.5-1,13.9-0.6c1.5,0.1,3.1,0.4,4.3,1.1c2.1,5.6-1.3,5.2-4.3,6
		c-3.2,0.6-11.3-1.5-13.3,2c0.8,10.6,0.3,21.8,3.5,31.5c-1.3,2.7-0.1,21,1.3,23.4c1.7,0.6,8.3-0.3,10.6,0c1.4,0.1,2.7,0.8,3.5,2.4
		C303,106.8,301.4,108.8,299.3,109.6z"/>
	<path class="st0" d="M367.3,99.8c-0.7,4.8-7,6.2-11.1,10.2c-3.2,3.4-9,2.9-11.3,5.2c-1.3,0.4-2.8,0.6-4.5,0.6
		c-11.5,0-18.3-5.2-22.1-12.7c-3.4-6.4-5.9-11.2-5.9-23.8c0-19.2,6.2-26.7,8.1-36.1c1.8-1.5,3.4-4.1,4.3-6
		c5.2-4.1,14.1-8.4,19.9-8.4c6.6,0,12.3,2.8,16.7,6.9c0.8,3.4,5.2,4.6,5.2,8.5c0,2-1.3,4.6-3.9,4.6c-0.6,0-1.1-0.1-1.7-0.7
		c-4.8-4.2-5.2-11.3-14.1-11.3c-1.3,0-2.5,0.3-4.1,0.6C323.9,41.9,320,64.1,320,79.8c0,9.1,2.8,21.4,9.5,26c2,1,5.6,1.5,9.2,1.5
		c9.1,0,20.7-5.5,23.7-10.6c0.6-0.6,1.1-0.8,1.8-0.8C365.9,95.9,367.2,98,367.3,99.8z"/>
	<path class="st0" d="M420.2,106c-1.8,1-3.9,1.4-6.2,1.3c-3.4,1.4-7.1,2.4-10.9,3.4c-5,1.4-10.2,2.8-14.3,5.6
		c-2.9,0.8-5-1.5-6.2-3.8c-1.3-9.8,0.3-24.2-1.3-34.2c-1.7-1.1-1.7-3.1-2.4-4.8c4.3-4.1-1-8.7,1.4-13.3c0.1-3.9-1.1-9.2-0.7-13.7
		c0.3-3.2,1.4-5.9,4.6-7.3c4.3,1.4,9,0.4,13.4,0c6.9-0.7,14-2.4,20.4-1.3l0.6,1.1c1.4,2.9-2.1,4.2-3.4,5.5c-4.3,1.8-9.9,2-15.3,2.4
		c-4.1,0.3-8.1,0.7-11.3,2.1c-2.9,5.3,1,14-0.1,19.3c0.1,2.4,1.5,2.8,4.9,1.7c5.7-1.3,13.4,0.6,18.1-3.6c2.4-0.3,4.5,0.3,5.9,2.5
		c0.4,5.9-6.3,4.9-9.8,6.7c-5.6,0.8-12,3.8-18.5,2.7C389,83.1,389,95,390,100.4c-0.4,1.1,0.7,3.1,1.3,4.9c4.3-0.8,8.7-2.2,13-3.5
		c5.5-1.7,11.1-3.2,16.4-4.1c2.4,0.1,2.9,1.8,4.2,3.5C423.9,103.2,422.2,104.9,420.2,106z"/>
	<path class="st0" d="M483.1,39.5c-2.1-0.4-4.2,0-5.9-1.8c0-0.4,0.1-0.7,0.1-1c0-6-3.5-11.9-10.5-13.7c-1-0.1-2.1-0.1-2.9-0.1
		c-11.5,0-22.7,12.3-22.7,22.1c0,11.3,7.7,12.6,14.4,12.6h6.3c5,0,10.4,0.6,13.7,4.8c2,4.8,8.3,8.1,8.3,13.2c0,1.3,0.4,3.2-0.4,4.6
		c0.1,0.7,0.1,1.4,0.1,2.1c0,9.5-10.8,23.1-19.6,23.1c-3.5,0-10.4-1.3-13.4-2.5c-4.3-2-6.2-3.5-9.4-6.7c-2.4-2.5-2.2-6-3.9-10.1
		c1.7-2.8,3.8-5.5,6.2-5.5c1.3,0,2.2,0.6,3.5,2.2c0.6,3.6-1.8,7.1,0.6,9.8c4.2,4.5,10.8,4.9,14.7,4.9c8.7,0,13.9-11.1,13.9-17.8
		c0-4.5-4.1-9-6-12.2c-1.7-2.1-4.2-3.6-7.4-3.6c-0.6,0-1.1,0-1.8,0.1c-0.3-0.1-0.7-0.1-1-0.1c-1.5,0-2.8,0.8-3.9,0.8
		c-0.4,0-1.1-0.1-1.7-0.6c-0.6,0.6-1.1,0.8-1.7,0.8c-1.4,0-2.4-1.5-3.6-1.5c-0.6,0-1.3,0.4-1.8,1.4c-8.3-2.5-14.1-10.5-14.1-19.6
		c0-5.5,4.9-14.1,8.3-18.6c4.9-6.4,11.8-11.1,22.1-11.1c9.7,0,19,8,22.5,16.2C485,34.3,485,37.2,483.1,39.5z"/>
</g>
</svg>
