<svg id="Layer_1" data-name="Layer 1" xmlns="http://www.w3.org/2000/svg" viewBox="0 0 425.04 110.88"><defs><style>.cls-1{fill:#333;}</style></defs><title>SMALLCAM</title><path class="cls-1" d="M66.09,104.57c-.7,4.76-7,6.16-11.06,10.22-3.22,3.36-9,2.94-11.34,5.18a14.53,14.53,0,0,1-4.48.56c-11.48,0-18.34-5.18-22.12-12.74-3.36-6.44-5.88-11.2-5.88-23.8,0-19.18,6.16-26.74,8.12-36.12a20,20,0,0,0,4.34-6c5.18-4.06,14.14-8.4,19.88-8.4a24.34,24.34,0,0,1,16.66,6.86c.84,3.36,5.18,4.62,5.18,8.54,0,2-1.26,4.62-3.92,4.62a2.22,2.22,0,0,1-1.68-.7C55,48.57,54.61,41.43,45.65,41.43a23.38,23.38,0,0,0-4.06.56c-18.9,4.62-22.82,26.88-22.82,42.56,0,9.1,2.8,21.42,9.52,26,2,1,5.6,1.54,9.24,1.54,9.1,0,20.72-5.46,23.66-10.64a2.46,2.46,0,0,1,1.82-.84C64.69,100.65,66,102.75,66.09,104.57Z" transform="translate(-11.21 -13.01)"/><path class="cls-1" d="M129.09,123.19a4.22,4.22,0,0,1-2.8-1.26c-5.88-10.64-4.2-24.22-9-34.58-.7-.14-.84-1.4-2-1.4-.84,0-1.26.56-2,.56a47.44,47.44,0,0,1-6.3.28H100c-3.08,0-6,0-6,2.1,0,.42.14,1,.14,1.4s-.14,1.12-1.4,1.82c-.7,10.36-2.94,18.62-4.48,28.14-1.12,1.54-2.66,3.64-4.2,3.64-.84,0-1.68-.7-2.52-2.38L80,119.69c.42-2.1,1.26-2.8,1.68-4.62a4.14,4.14,0,0,0-.42-1.68c.14-1,.7-1.82.7-2.38s-.14-1.68-.14-2.66c1.54-8.4,2.52-11.76,4.2-20.72a3.88,3.88,0,0,0-1.26-.14c-.84,0-1.68.14-2.52.14-1.4,0-3.22-.42-3.22-3.22,0-3.5,1.82-5.88,4.62-5.88.7,0,1.54.14,2.24.14a3.79,3.79,0,0,0,2.66-.84c.28-6.16,4.06-13.3,4.06-19.6A11.79,11.79,0,0,0,92,54.45c2.38-2.1,1.12-6.58,2-9,2.38-7.28,2-16.38,5.6-22.82a3.91,3.91,0,0,1-.7-2.38c0-2.52,2.38-5,3.78-7.28,2.52,1.12,5.74,2,6.86,4.76a14.22,14.22,0,0,0-.84,4.76c0,4.2,2,8.26,4.62,11.76a5.33,5.33,0,0,0-.42,2.52c0,2.94,1.4,5.88,1.4,9.1v.56c5.18,8.68,3.22,19.32,7.56,28.28,0,.42-.14.7-.14,1,0,4.06,2.66,7.42,2.66,11.34v1.26c3.08,6.58,2.8,14.7,5.88,21.84.42,2.8,2.52,5.88,2.52,9a6.38,6.38,0,0,1-.84,3.08A4.28,4.28,0,0,1,129.09,123.19ZM111.45,57.81c-1-2.66-2.52-5-2.52-7.7,0-.28.14-.7.14-1-2.94-3.08-2.52-11.2-4.62-14.7-4.06,12-6.3,31.78-7.28,44.66,4.76-.56,11.48.14,17.08-.7C113.83,71.67,111.73,64.53,111.45,57.81Z" transform="translate(-11.21 -13.01)"/><path class="cls-1" d="M206.79,92.67c2.24,4.06,3.5,10.5,1.26,13.86l-5.6,1.12c-2.1-.84-2.24-4.2-1.26-6-.56-7.42-1.4-13.86-1.82-21.14-3.08-3.36-1.68-8.54-3.92-12-.28-6.72-1.12-13.72-3.36-19.6a4.48,4.48,0,0,0-2.94,4.48c-5.18,5-6.44,11.76-11.62,16.66.14,5.88-8.82,6.72-6.16,12.88.84,2.24-1.68,3.36-2.94,4.2-2.8-1-3.78-4.76-6.72-6.72-4.76-4.48-10.22-9.94-13.3-15.82L144.77,61c-4.34,4.62,1,11.2-2.52,16.24.14,6.58-.56,22.4-3.22,28.42a18.08,18.08,0,0,1-5.32,1.12c-3.22-2.1-2.24-4.06-1.26-7.14,2.8-11.34,3.08-31.78,4.34-43.12.56-4.34-4.06-7.84-.56-12.18,1.12-2,3.5-5.18,6-2.94.28,6,6.3,9.8,8.68,15.12,3.64,5.6,9.52,11.48,14.42,17.08C172.63,66.49,177.39,57,183,48c2.38-3.64,1.68-9,6.58-10.78,4.34-1.68,3.78,5,8,3.5,5.6,6.3,2.24,17.08,4.9,23.8C203.43,74.05,208.61,82.45,206.79,92.67Z" transform="translate(-11.21 -13.01)"/><path class="cls-1" d="M263.35,110.73a11.37,11.37,0,0,1-6.16,1.26,83,83,0,0,1-10.92,3.36c-5,1.4-10.22,2.8-14.28,5.6-2.94.84-5-1.54-6.16-3.78-1.26-9.8.28-24.22-1.26-34.16-1.68-1.12-1.68-3.08-2.38-4.76,4.34-4.06-1-8.68,1.4-13.3.14-3.92-1.12-9.24-.7-13.72.28-3.22,1.4-5.88,4.62-7.28,4.34,1.4,9,.42,13.44,0,6.86-.7,14-2.38,20.44-1.26l.56,1.12c1.4,2.94-2.1,4.2-3.36,5.46-4.34,1.82-9.94,2-15.26,2.38-4.06.28-8.12.7-11.34,2.1-2.94,5.32,1,14-.14,19.32.14,2.38,1.54,2.8,4.9,1.68,5.74-1.26,13.44.56,18.06-3.64,2.38-.28,4.48.28,5.88,2.52.42,5.88-6.3,4.9-9.8,6.72-5.6.84-12,3.78-18.48,2.66-.28,4.9-.28,16.8.7,22.12-.42,1.12.7,3.08,1.26,4.9,4.34-.84,8.68-2.24,13-3.5a121.57,121.57,0,0,1,16.38-4.06c2.38.14,2.94,1.82,4.2,3.5A11.63,11.63,0,0,1,263.35,110.73Z" transform="translate(-11.21 -13.01)"/><path class="cls-1" d="M318.22,116.75c-6-9.66-15.26-16.66-19.46-27.16-2.8-2.38-4.34-11.76-7.28-13.86,0,2.24.7,8.4.7,11.76.28,6-3.5,15,.28,20.3-2,3.08.28,7.84,0,11.2-.14,2-1.12,3.5-4.34,4.06-1.82-.14-3.22-2.1-4.76-2.94.28-11.9,1.12-37.94,1.12-46.34,0-3.36-3.22-1.68.14-8.82-.56-3.22-1.26-10.5-.56-13.86-1.54-3.5,0-8-1.26-11.62-2.8.7-6,3.64-8.68.7-.14-2.8-.28-6.3,3.08-7.14,2.52,0,4.34-1.82,6.3-3.92-1.82-3.22.14-6,3.64-6.58a5.79,5.79,0,0,1,5.46,0c.42,1.12-1.12,5.6-.42,6.58,3.22-.7,6.58-1.68,9.52-1.68,6-.14,11.06,1.68,15.68,3.78l2,1.82c-.28,3.22,1.82,5.18,2.1,9.1.14,3.36-1.26,8.68-3.64,10.78l-6,8.4c-7.14,5.18-7.28,3.5-14.42,8.82,3.08,6.72,5.46,13.16,8.82,18.62a96.26,96.26,0,0,0,14.7,18.48c.84,1,5.46,4.62,5.46,5.74C327.88,118.29,322.84,119.27,318.22,116.75Zm-4.48-77.28-6-5.18c-4.06-1.4-12,1.26-16.94,2.66-.14,1.26-1,7.42.7,8.82-.84,5.6-.84,12.32-.7,19.18.56,1,2.1-2.38,2.94-1.54,8-2.94,16.38-6.44,19.6-14.56.14-3.08,2.8-2.66,1.12-5.88Z" transform="translate(-11.21 -13.01)"/><path class="cls-1" d="M389.06,123.19a4.22,4.22,0,0,1-2.8-1.26c-5.88-10.64-4.2-24.22-9-34.58-.7-.14-.84-1.4-2-1.4-.84,0-1.26.56-2,.56a47.44,47.44,0,0,1-6.3.28h-7.14c-3.08,0-6,0-6,2.1,0,.42.14,1,.14,1.4s-.14,1.12-1.4,1.82c-.7,10.36-2.94,18.62-4.48,28.14-1.12,1.54-2.66,3.64-4.2,3.64-.84,0-1.68-.7-2.52-2.38l-1.54-1.82c.42-2.1,1.26-2.8,1.68-4.62a4.14,4.14,0,0,0-.42-1.68c.14-1,.7-1.82.7-2.38s-.14-1.68-.14-2.66c1.54-8.4,2.52-11.76,4.2-20.72a3.88,3.88,0,0,0-1.26-.14c-.84,0-1.68.14-2.52.14-1.4,0-3.22-.42-3.22-3.22,0-3.5,1.82-5.88,4.62-5.88.7,0,1.54.14,2.24.14a3.79,3.79,0,0,0,2.66-.84c.28-6.16,4.06-13.3,4.06-19.6a11.79,11.79,0,0,0-.56-3.78c2.38-2.1,1.12-6.58,2-9,2.38-7.28,2-16.38,5.6-22.82a3.91,3.91,0,0,1-.7-2.38c0-2.52,2.38-5,3.78-7.28,2.52,1.12,5.74,2,6.86,4.76a14.22,14.22,0,0,0-.84,4.76c0,4.2,2,8.26,4.62,11.76a5.33,5.33,0,0,0-.42,2.52c0,2.94,1.4,5.88,1.4,9.1v.56c5.18,8.68,3.22,19.32,7.56,28.28,0,.42-.14.7-.14,1,0,4.06,2.66,7.42,2.66,11.34v1.26c3.08,6.58,2.8,14.7,5.88,21.84.42,2.8,2.52,5.88,2.52,9a6.38,6.38,0,0,1-.84,3.08A4.28,4.28,0,0,1,389.06,123.19ZM371.42,57.81c-1-2.66-2.52-5-2.52-7.7,0-.28.14-.7.14-1-2.94-3.08-2.52-11.2-4.62-14.7-4.06,12-6.3,31.78-7.28,44.66,4.76-.56,11.48.14,17.08-.7C373.8,71.67,371.7,64.53,371.42,57.81Z" transform="translate(-11.21 -13.01)"/><path class="cls-1" d="M433.45,44.23c-2.1-.42-4.21,0-5.88-1.82,0-.42.13-.7.13-1a13.77,13.77,0,0,0-10.5-13.72,21.46,21.46,0,0,0-2.93-.14c-11.48,0-22.69,12.32-22.69,22.12,0,11.34,7.71,12.6,14.42,12.6h6.31c5,0,10.35.56,13.72,4.76,2,4.76,8.26,8.12,8.26,13.16,0,1.26.41,3.22-.42,4.62a11.4,11.4,0,0,1,.13,2.1c0,9.52-10.77,23.1-19.59,23.1A47.54,47.54,0,0,1,401,107.51c-4.35-2-6.16-3.5-9.39-6.72-2.38-2.52-2.23-6-3.92-10.08,1.69-2.8,3.79-5.46,6.17-5.46,1.25,0,2.24.56,3.5,2.24.56,3.64-1.82,7.14.56,9.8,4.19,4.48,10.77,4.9,14.69,4.9,8.69,0,13.87-11.06,13.87-17.78,0-4.48-4.06-9-6-12.18A9.33,9.33,0,0,0,413,68.59a8.57,8.57,0,0,0-1.81.14,2.41,2.41,0,0,0-1-.14c-1.54,0-2.79.84-3.91.84a3,3,0,0,1-1.68-.56,2.44,2.44,0,0,1-1.68.84c-1.4,0-2.39-1.54-3.64-1.54a2.33,2.33,0,0,0-1.82,1.4A20.42,20.42,0,0,1,383.33,50c0-5.46,4.9-14.14,8.25-18.62,4.91-6.44,11.77-11.06,22.12-11.06,9.67,0,19,8,22.54,16.24C435.41,39.05,435.41,42,433.45,44.23Z" transform="translate(-11.21 -13.01)"/></svg>